<svg width="1457" height="282" viewBox="0 0 1457 282" fill="none" xmlns="http://www.w3.org/2000/svg">
<rect y="257" width="1457" height="25" fill="#5E7CF7"/>
<path d="M301 74.9471L345.313 59.0216L371.559 85.6284L355.404 130.098L301 74.9471Z" fill="#7690FF"/>
<g clip-path="url(#clip0)">
<path d="M386.769 41.9632L395.624 33.3888C398.726 30.385 403.652 30.385 406.754 33.3888L431.899 57.7372C435.011 60.7512 436.769 64.8987 436.769 69.2315V255" stroke="#CBCBCB" stroke-opacity="0.75" stroke-width="8"/>
<rect x="406.769" y="254" width="59" height="7" rx="3" fill="#AFB9C5" fill-opacity="0.75"/>
<path d="M356.475 43.4434C365.004 34.9142 378.832 34.9142 387.361 43.4433V43.4433C395.891 51.9725 395.891 65.8009 387.361 74.3301L374.258 87.4335L343.371 56.5468L356.475 43.4434Z" fill="#C5CFD6" fill-opacity="0.75"/>
<path fill-rule="evenodd" clip-rule="evenodd" d="M356.296 74.6765C364.825 83.2056 373.101 88.758 374.781 87.078C376.461 85.398 370.908 77.1219 362.379 68.5928C353.85 60.0636 345.574 54.5113 343.894 56.1913C342.214 57.8713 347.766 66.1474 356.296 74.6765Z" fill="#F2F2F2" fill-opacity="0.75"/>
</g>
<g opacity="0.7">
<path fill-rule="evenodd" clip-rule="evenodd" d="M1024.2 130.866C1029.37 130.552 1035.76 134.077 1036.31 140.64C1036.71 145.408 1036.58 150.163 1037.2 154.925C1037.7 158.73 1038.75 162.383 1040.18 165.85C1041.55 169.183 1044.4 172.02 1045.14 175.581C1045.62 177.85 1045.35 181.042 1044.7 183.261C1043.91 185.96 1044.33 185.747 1045.91 188.011C1049 192.448 1051.79 196.998 1053.76 202.298C1056.6 209.931 1058.46 218.854 1057.41 227.209C1057.27 228.27 1057.11 232.078 1055.86 232.344C1054.47 232.642 1055.12 230.464 1055.19 229.76C1055.67 225.272 1056.09 221.349 1055.52 216.79C1053.31 199.201 1042.51 187.613 1035.48 172.685C1035.09 171.915 1034.28 170.082 1033.71 168.873C1032.81 166.964 1031.91 163.331 1030.7 161.915C1028.42 159.248 1030.52 164.61 1030.96 165.633C1031.52 166.928 1032.14 168.304 1032.72 169.439C1035.36 174.698 1038.3 180.439 1041.03 185.86C1029.24 188.997 1020.94 172.444 1017.78 161.562C1015.18 152.596 1012.06 131.633 1024.2 130.866" fill="#69A1AC" fill-opacity="0.71"/>
<path fill-rule="evenodd" clip-rule="evenodd" d="M1093.45 114.215C1084.81 115.016 1079.27 121.676 1076.69 130.992C1075.3 136.012 1075.14 141.169 1074.36 146.328C1073.2 154.09 1070.7 159.972 1065.81 165.502C1064.29 167.215 1063.18 168.973 1062.38 170.854C1060.81 172.733 1059.44 174.858 1058.43 177.457C1057.14 180.776 1056.78 184.757 1058.26 188.066C1058.66 188.955 1059.66 190.741 1060.69 191.552C1056.83 201.176 1054.7 211.715 1054.94 222.241C1055.08 228.596 1055.35 234.952 1055.66 241.299C1055.74 243.003 1056.22 245.817 1056.93 242.959C1057.58 240.345 1056.77 236.241 1056.69 233.51C1056.32 220.207 1056.01 208.111 1060.69 195.682C1061.18 194.38 1061.71 193.087 1062.25 191.805C1062.28 191.784 1062.31 191.758 1062.34 191.732C1062.36 191.751 1062.38 191.771 1062.4 191.789C1062.43 191.717 1062.48 191.631 1062.54 191.535C1062.69 191.348 1062.83 191.11 1062.96 190.846C1063.37 190.173 1063.84 189.382 1063.85 188.949C1063.85 188.945 1063.84 188.94 1063.84 188.937C1066.75 183.403 1070.07 178.174 1073.46 173.047C1073.44 173.084 1077.14 167.186 1076.57 170.448C1076.29 172.02 1073.57 175.013 1072.47 176.678C1070.03 180.382 1067.17 185.076 1064.79 189.614C1064.47 189.829 1064.02 190.884 1063.69 191.669C1063.51 192.067 1063.35 192.469 1063.18 192.818C1071.6 196.07 1078.16 189.519 1082.62 181.9C1082.63 181.891 1082.63 181.882 1082.64 181.873C1084 179.768 1085.39 177.677 1087.13 176.013C1090.03 173.236 1093.14 172.746 1096.57 171.379C1105.9 167.652 1109.87 153.516 1111.13 143.027C1112.55 131.194 1105.59 113.049 1093.45 114.215" fill="#89C5CC" fill-opacity="0.79"/>
<path fill-rule="evenodd" clip-rule="evenodd" d="M1076.39 81.0774C1067.52 91.8589 1063.24 106.813 1059.85 120.872C1056.06 136.573 1053.56 152.518 1053.46 168.843C1053.4 179.568 1053.15 190.361 1053.69 201.074C1053.88 204.879 1054.2 208.69 1054.72 212.454C1054.76 212.764 1055.92 221.168 1057.02 219.209C1057.65 218.096 1055.84 210.491 1055.7 209.225C1054.93 202.091 1054.75 194.905 1054.79 187.719C1054.85 175.889 1054.55 164.119 1055.58 152.332C1055.73 150.572 1055.85 148.724 1056.21 147.002C1056.59 145.172 1056.11 145.971 1057.34 145.246C1058.54 144.542 1060.03 144.643 1061.28 143.759C1066.22 140.253 1068.76 131.248 1070.73 125.34C1072.98 118.583 1074.35 111.378 1075.44 104.268C1076.24 99.0439 1076.82 93.8515 1077.14 88.5601C1077.25 86.8924 1077.25 85.1485 1077.53 83.5087C1077.61 83.0664 1077.99 82.2839 1077.97 81.8922C1077.94 81.0631 1077.52 80.5756 1077.48 79.879C1077.11 80.2692 1076.75 80.669 1076.39 81.0774" fill="#89C5CC" fill-opacity="0.79"/>
<path fill-rule="evenodd" clip-rule="evenodd" d="M1028.05 224.724C1028.05 242.554 1040.42 257.009 1055.68 257.009C1070.94 257.009 1083.31 242.554 1083.31 224.724" fill="#89C5CC" fill-opacity="0.79"/>
<path fill-rule="evenodd" clip-rule="evenodd" d="M1074.61 196.458C1081.45 195.869 1089.09 202.315 1092.38 209.023C1095.04 214.432 1094.59 221.534 1092.95 227.28C1091.85 231.127 1089.45 236.611 1085.45 236.665C1080.44 236.732 1080.2 229.499 1080.1 225.271C1079.98 219.65 1079.37 214.753 1075.58 210.921C1075.11 210.449 1074.62 210.006 1074.13 209.563C1073.69 209.17 1073.26 208.777 1072.84 208.363C1072.77 208.297 1072.7 208.231 1072.63 208.165C1071.29 206.848 1069.89 205.466 1069.71 203.296C1069.47 200.151 1070.98 199.585 1073.3 200.169C1073.38 200.188 1073.58 200.278 1073.86 200.401C1075.04 200.925 1077.57 202.045 1077.09 200.707C1076.91 200.202 1076.25 199.803 1075.42 199.503C1073.28 199.231 1070.72 198.914 1069.98 199.103C1062.03 201.14 1058.94 214.002 1058.12 222.174C1058.03 223.056 1057.96 223.941 1057.9 224.827H1056.44C1056.54 222.687 1056.67 220.55 1056.98 218.434C1058.15 210.339 1061.81 198.451 1069.84 197.137C1070.14 197.088 1071.23 197.08 1072.55 197.17C1073.17 196.762 1073.87 196.515 1074.61 196.458Z" fill="#69A1AC" fill-opacity="0.71"/>
</g>
<defs>
<clipPath id="clip0">
<rect width="139" height="245" fill="white" transform="translate(326.769 16)"/>
</clipPath>
</defs>
</svg>
