<svg width="1457" height="282" viewBox="0 0 1457 282" fill="none" xmlns="http://www.w3.org/2000/svg">
<g clip-path="url(#clip0)">
<path fill-rule="evenodd" clip-rule="evenodd" d="M1295.34 66.9987C1293.12 71.3554 1290.28 74.5679 1288.38 75.1688C1283.62 76.6756 1273.86 61.8959 1273.33 53.9918C1272.81 46.0877 1287.52 33.3056 1295.68 44.52C1298.51 48.4121 1299.07 53.113 1298.39 57.6553L1316.11 75.9312L1302.96 84.1503L1295.34 66.9987Z" fill="#B28B67"/>
<path fill-rule="evenodd" clip-rule="evenodd" d="M1268.3 49.4162C1270.13 52.3434 1273.92 53.3006 1276.9 51.6497C1278.87 51.127 1281.23 50.1747 1283.68 48.8613C1283.99 49.8638 1284.48 50.9181 1285.17 52.0217C1285.78 52.9963 1286.53 53.9626 1287.38 54.8882C1287.51 53.9621 1287.95 53.1393 1288.64 52.7062C1290.58 51.4948 1292.93 52.2464 1293.99 53.9398C1295.33 56.089 1295.06 58.4191 1293.33 59.6752C1296.91 61.7868 1300.64 62.7349 1302.9 61.3267C1307.18 58.6518 1306.64 51.0268 1302.8 44.8734C1302.66 44.6572 1302.53 44.4451 1302.38 44.2372C1304.45 44.3261 1306.61 44.7905 1308.78 45.2583L1308.78 45.2583C1313.4 46.2522 1318.09 47.2612 1322.16 44.7154C1330.31 39.6218 1323.28 21.1573 1311.89 28.2738C1304.14 33.1136 1301.04 36.6235 1298.8 40.345C1297.01 38.924 1295.06 38.0062 1293.19 37.6888C1292.69 37.5433 1292.05 37.5087 1291.3 37.5777C1290.82 37.605 1290.36 37.6756 1289.92 37.7913C1287.48 38.3009 1284.29 39.5799 1281.02 41.4699C1280.41 41.8228 1279.82 42.1838 1279.25 42.5497C1277.35 39.5367 1273.37 38.6233 1270.35 40.5111C1267.33 42.4024 1266.41 46.3894 1268.3 49.4162Z" fill="#191847"/>
<path fill-rule="evenodd" clip-rule="evenodd" d="M1369.85 189.935C1369.85 189.935 1346.6 196.44 1329.73 196.44C1312.86 196.44 1298.38 186.423 1298.38 186.423C1298.38 186.423 1321.14 179.747 1335.87 179.747C1350.59 179.747 1369.85 189.935 1369.85 189.935Z" fill="#1F28CF"/>
<path fill-rule="evenodd" clip-rule="evenodd" d="M1316.31 202.69C1316.46 202.465 1316.58 202.221 1316.68 201.956C1318.75 196.476 1351.95 137.355 1355.25 126.546H1317.88C1315.37 134.764 1304.05 186.337 1302.46 196.627C1297.44 212.857 1287.09 265.422 1285.77 269.064C1284.38 272.895 1292.2 276.886 1294.28 272.176C1297.6 264.682 1305.49 243.947 1309.01 231.287C1312.31 219.417 1314.99 208.739 1316.31 202.69Z" fill="#997659"/>
<path fill-rule="evenodd" clip-rule="evenodd" d="M1346.88 209.908C1362.06 213.744 1417.56 220.677 1421.37 221.765C1425.29 222.884 1428.73 214.807 1423.88 213.057C1416.18 210.274 1394.94 203.841 1382.07 201.216C1371.71 199.105 1362.26 197.382 1355.92 196.374C1356.45 178.552 1358.91 135.783 1357.3 126.546H1324.23C1325.78 135.404 1338.83 200.036 1341.26 206.506C1342.03 208.815 1344.33 209.836 1346.88 209.908V209.908Z" fill="#B28B67"/>
<path fill-rule="evenodd" clip-rule="evenodd" d="M1422.68 213.296C1422.44 212.151 1423.12 210.976 1424.28 210.797C1425.55 210.6 1427.09 210.434 1427.99 210.591C1429.71 210.895 1432.91 212.051 1432.91 212.051C1432.56 214.048 1426.58 247.947 1426.58 247.947C1426.58 247.947 1421.71 248.53 1421.87 245.451C1422.03 242.371 1422.09 240.324 1422.09 240.324L1417.68 222.682C1417.54 222.135 1417.88 221.584 1418.43 221.463L1420.87 220.927C1420.87 220.927 1422.66 218.366 1422.97 216.621C1423.12 215.76 1422.92 214.427 1422.68 213.296Z" fill="#E4E4E4"/>
<path fill-rule="evenodd" clip-rule="evenodd" d="M1294.15 271.144C1295.24 270.704 1296.51 271.176 1296.89 272.285C1297.31 273.506 1297.74 274.992 1297.74 275.899C1297.74 277.647 1297.16 281 1297.16 281C1295.13 281 1260.71 281 1260.71 281C1260.71 281 1259.28 276.303 1262.35 275.929C1265.41 275.554 1267.43 275.252 1267.43 275.252L1284.04 267.848C1284.56 267.618 1285.16 267.859 1285.37 268.38L1286.32 270.685C1286.32 270.685 1289.16 272.007 1290.93 272.007C1291.8 272.007 1293.08 271.579 1294.15 271.144Z" fill="#E4E4E4"/>
<path fill-rule="evenodd" clip-rule="evenodd" d="M1357.19 126.546C1357.19 126.546 1335.34 120.293 1315.83 126.546C1311.31 147.185 1300.32 155.377 1298.38 187.021C1320.36 197.939 1347.5 179.235 1370.12 189.882C1376.58 174.99 1367.53 139.125 1357.19 126.546Z" fill="#2B44FF"/>
<path fill-rule="evenodd" clip-rule="evenodd" d="M1273.33 163.403L1284.02 140.17L1293.47 147.813L1279.72 165.113C1277.96 173.844 1276.5 177.882 1275.36 177.227C1274.39 176.675 1274.36 175.678 1274.32 174.76C1274.29 174.045 1274.27 173.377 1273.81 173.005C1272.76 172.154 1269.43 174.15 1266.35 176.179C1263.28 178.207 1263.42 176.258 1263.8 175.122C1266 171.34 1269.17 167.434 1273.33 163.403ZM1383.37 148.957C1380.22 146.049 1360.78 113.401 1360.78 113.401L1348.19 118.29C1348.19 118.29 1374.34 151.504 1376.16 153.454C1378.52 155.986 1378.13 161.127 1377.87 164.614C1377.83 165.153 1377.8 165.653 1377.77 166.097C1380.04 166.22 1380.57 164.819 1381.12 163.341C1381.75 161.673 1382.41 159.907 1385.66 160.131C1386.91 160.217 1388.14 160.416 1389.34 160.61C1393.5 161.281 1397.32 161.897 1400.56 157.648C1401.07 156.975 1401.21 155.128 1398.96 154.59C1393.35 153.25 1384.91 150.379 1383.37 148.957Z" fill="#B28B67"/>
<path fill-rule="evenodd" clip-rule="evenodd" d="M1304.65 74.2503L1299.08 75.3581C1298.72 101.244 1290.86 127.651 1275.52 154.58L1300.32 168.635C1312.67 133.935 1316.13 101.701 1304.65 74.2503Z" fill="#191847"/>
<path fill-rule="evenodd" clip-rule="evenodd" d="M1352.55 131.083L1306.1 148.916C1306.1 148.916 1307.17 103.465 1296.64 76.0271L1309.85 68.5599C1327.67 82.045 1339.15 102.659 1352.55 131.083Z" fill="#DDE3E9"/>
<path fill-rule="evenodd" clip-rule="evenodd" d="M1381.31 142.887C1354.23 87.5184 1310.16 68.4416 1310.16 68.4416L1310.15 68.4558C1310.15 68.4532 1310.15 68.4506 1310.15 68.448L1309.23 68.7991C1307.61 69.4859 1304.31 70.9228 1304.31 70.9228L1304.64 81.8995C1310.89 99.8034 1325.74 155.639 1325.74 155.639L1356.15 143.967C1357.04 146.446 1357.89 148.983 1358.67 151.579L1381.31 142.887Z" fill="#2F3676"/>
<path fill-rule="evenodd" clip-rule="evenodd" d="M1356.24 144.206C1352.37 133.404 1347.56 123.714 1342.48 115.222C1345.8 126.338 1349.05 139.996 1347.76 147.458L1356.24 144.206Z" fill="black" fill-opacity="0.1"/>
<path fill-rule="evenodd" clip-rule="evenodd" d="M1342.33 128.086L1324.63 126.869L1327.31 133.85L1342.33 128.086Z" fill="white" fill-opacity="0.2"/>
<path fill-rule="evenodd" clip-rule="evenodd" d="M1172.68 99.37C1168.52 101.879 1164.44 103.091 1162.52 102.596C1157.71 101.356 1157.27 83.743 1160.99 76.7996C1164.71 69.8562 1183.85 66.8299 1184.81 80.5869C1185.15 85.3616 1183.14 89.6226 1180.18 93.0996L1185.49 117.855H1170.07L1172.68 99.37Z" fill="#B28B67"/>
<path fill-rule="evenodd" clip-rule="evenodd" d="M1159.53 79.9174C1159.69 79.0173 1160.06 78.0179 1160.36 77.1664C1160.75 76.0687 1161.34 75.079 1161.98 74.1463C1163.2 72.3902 1164.66 70.8044 1166.27 69.4882C1169.22 67.0841 1172.97 65.6974 1176.65 66.1477C1178.51 66.3751 1180.32 67.0856 1181.86 68.2683C1183.25 69.3368 1184.59 70.9098 1186.39 71.0229C1188.34 71.1457 1190.14 69.4165 1191.71 68.3485C1193.48 67.1444 1195.36 66.2671 1197.43 65.9261C1200.9 65.3549 1204.15 66.5269 1206.54 69.3728C1209.08 72.4012 1210.93 76.8425 1209.26 80.8551C1208.95 81.6011 1208.55 82.2299 1207.98 82.7511C1207.46 83.229 1206.65 83.7375 1206.44 84.5012C1206.21 85.3129 1206.89 86.3601 1207.15 87.0926C1207.53 88.1419 1207.84 89.2435 1207.73 90.3841C1207.55 92.2573 1206.37 94.0454 1205.13 95.2766C1203.86 96.5295 1202.31 97.2479 1200.65 97.5791C1199.54 97.8002 1198.4 97.9222 1197.27 97.8392C1196.71 97.798 1196.22 97.6424 1195.68 97.5187C1195.15 97.3983 1194.86 97.5385 1194.41 97.8279C1192.33 99.1728 1190.09 99.6931 1187.69 99.4931C1185.67 99.3243 1183.33 98.833 1181.68 97.444C1179.85 95.9013 1179.88 93.7741 1180.31 91.5013C1179.86 91.7282 1178.59 91.8687 1179.35 90.9642C1179.65 90.606 1180.21 90.4602 1180.6 90.2495C1181.05 90.0042 1181.5 89.6871 1181.85 89.2869C1183.25 87.6711 1181.83 84.3828 1180.07 83.8409C1177.45 83.0358 1176.86 86.7455 1174.99 87.7051C1173.91 88.2568 1172.79 87.5027 1171.98 86.7327C1170.9 85.7012 1170.17 84.3346 1169.53 82.944C1169.01 81.7987 1168.52 80.6374 1167.99 79.4979C1167.74 78.9658 1166.88 77.4614 1167.31 76.8598C1165.43 76.4851 1163.34 77.2658 1161.72 78.2897C1161.06 78.713 1160.55 79.1797 1160.19 79.9269C1160.11 80.087 1159.95 80.563 1159.74 80.5825C1159.35 80.6188 1159.49 80.1435 1159.53 79.9174" fill="#191847"/>
<path fill-rule="evenodd" clip-rule="evenodd" d="M1217.67 198.853C1226.51 198.853 1233.67 206.017 1233.67 214.853V262.565C1233.67 271.402 1226.51 278.565 1217.67 278.565H1155.24C1146.4 278.565 1139.24 271.402 1139.24 262.565V214.853C1139.24 206.017 1146.4 198.853 1155.24 198.853H1217.67ZM1211.68 216.853C1213.89 216.853 1215.68 218.644 1215.68 220.853V256.566C1215.68 258.775 1213.89 260.566 1211.68 260.566H1161.23C1159.02 260.566 1157.23 258.775 1157.23 256.566V220.853C1157.23 218.644 1159.02 216.853 1161.23 216.853H1211.68Z" fill="#C5CFD6"/>
<path fill-rule="evenodd" clip-rule="evenodd" d="M1075.54 275.351C1088.21 259.874 1096.78 248.4 1101.25 240.93C1108.91 228.138 1115.18 216.755 1117.16 212.407C1121.88 202.039 1106.3 197.184 1102.77 202.02C1097.43 209.34 1086.03 232.373 1068.58 271.12L1075.54 275.351Z" fill="#B28B67"/>
<path fill-rule="evenodd" clip-rule="evenodd" d="M1101.49 270.851L1125.06 211.477C1130.11 200.653 1105.76 193.538 1102.06 198.575C1093.64 210.011 1073.65 255.124 1071.15 258.531L1101.49 270.851Z" fill="#2F3676"/>
<path fill-rule="evenodd" clip-rule="evenodd" d="M1164.27 258.944C1159.68 252.242 1142.98 229.693 1133.88 220.363C1131.27 217.682 1128.72 215.109 1126.31 212.711C1119.13 205.584 1104.86 217.564 1112.01 224.056C1129.84 240.223 1155.84 262.049 1158.02 263.995C1161.06 266.722 1167.16 263.156 1164.27 258.944Z" fill="#B28B67"/>
<path fill-rule="evenodd" clip-rule="evenodd" d="M1160.83 256.807C1161.55 255.883 1162.89 255.653 1163.77 256.425C1164.73 257.269 1165.83 258.331 1166.28 259.109C1167.15 260.615 1168.32 263.794 1168.32 263.794C1166.57 264.802 1136.94 281.922 1136.94 281.922C1136.94 281.922 1133.38 278.583 1135.83 276.738C1138.28 274.892 1139.87 273.625 1139.87 273.625L1150.49 258.991C1150.82 258.535 1151.46 258.442 1151.91 258.786L1153.87 260.295C1153.87 260.295 1156.96 260.025 1158.49 259.144C1159.24 258.711 1160.12 257.711 1160.83 256.807Z" fill="#E4E4E4"/>
<path fill-rule="evenodd" clip-rule="evenodd" d="M1078.49 272.623C1079.58 272.183 1080.85 272.656 1081.23 273.765C1081.64 274.977 1082.07 276.449 1082.07 277.347C1082.07 279.086 1081.49 282.422 1081.49 282.422C1079.47 282.422 1045.26 282.422 1045.26 282.422C1045.26 282.422 1043.84 277.75 1046.89 277.377C1049.93 277.005 1051.94 276.705 1051.94 276.705L1068.45 269.342C1068.96 269.112 1069.56 269.353 1069.78 269.874L1070.72 272.162C1070.72 272.162 1073.54 273.477 1075.3 273.477C1076.16 273.477 1077.43 273.054 1078.49 272.623Z" fill="#E4E4E4"/>
<path fill-rule="evenodd" clip-rule="evenodd" d="M1133.55 214.442C1133.55 214.442 1162.93 209.651 1172.91 207.89C1191.88 204.544 1197.41 194.331 1194.14 172.048L1159.2 172.048C1152.26 174.053 1101.23 196.842 1101.23 196.842C1095.11 199.883 1096.25 208.848 1097.37 211.801C1097.44 211.982 1128.32 264.881 1128.32 264.881L1156.91 246.658L1133.49 216.59C1133.49 216.59 1132.56 214.72 1133.55 214.442Z" fill="#5C63AB"/>
<path fill-rule="evenodd" clip-rule="evenodd" d="M1226.99 200.08C1225.11 196.258 1215.7 147.072 1215.7 147.072L1201.64 147.125C1201.64 147.125 1217.71 199.228 1218.7 201.685C1219.98 204.878 1217.8 209.516 1216.32 212.661C1216.09 213.148 1215.87 213.599 1215.69 214.003C1217.75 214.924 1218.74 213.811 1219.78 212.637C1220.96 211.311 1222.2 209.908 1225.13 211.273C1226.27 211.8 1227.34 212.423 1228.39 213.032C1232 215.136 1235.32 217.069 1239.84 214.278C1240.56 213.835 1241.35 212.169 1239.45 210.868C1234.72 207.624 1227.91 201.948 1226.99 200.08ZM1108.52 180.915L1126.72 163.15L1132.76 173.616L1113.84 184.78C1109.09 192.259 1106.31 195.491 1105.48 194.475C1104.78 193.618 1105.1 192.68 1105.39 191.815C1105.62 191.141 1105.84 190.512 1105.54 190.002C1104.87 188.838 1101.07 189.505 1097.49 190.292C1093.92 191.079 1094.74 189.32 1095.5 188.402C1098.89 185.671 1103.22 183.175 1108.52 180.915Z" fill="#B28B67"/>
<path fill-rule="evenodd" clip-rule="evenodd" d="M1172.84 107.14L1167.28 106.187C1158.53 137.141 1113.57 158.24 1110.81 169.812C1109.8 174.055 1112.85 176.2 1111.28 177.493L1118.5 182.782C1119.72 181.355 1122.33 183.966 1127.78 182.139C1133.23 180.313 1172.84 143.793 1172.84 107.14Z" fill="#DB2721"/>
<path fill-rule="evenodd" clip-rule="evenodd" d="M1181.29 100.778C1183.5 100.624 1185.41 102.285 1185.56 104.489L1185.72 106.829C1196.18 114.88 1222.09 138.936 1228.84 183.719C1229.55 188.423 1228.27 190.943 1227.24 192.956C1226.54 194.333 1225.96 195.473 1226.22 196.914L1216.77 199.524C1216.77 198.46 1215.58 197.651 1214.04 196.607C1211.81 195.09 1208.85 193.076 1207.75 189.061C1206.71 185.256 1205.19 180.503 1203.37 175.216C1203.2 182.218 1201.87 188.658 1198.98 193.992C1191.77 207.299 1150.09 192.706 1145.74 179.13C1143.41 171.886 1146.71 165.804 1151.07 157.76C1156.6 147.55 1163.85 134.178 1163.5 111.256L1163.13 106.059C1162.98 103.855 1164.64 101.943 1166.84 101.789L1181.29 100.778Z" fill="#FF4133"/>
<path fill-rule="evenodd" clip-rule="evenodd" d="M258.996 45.6928C263.357 48.3224 267.641 49.5929 269.652 49.0742C274.695 47.7737 275.158 29.3154 271.257 22.0386C267.355 14.7618 247.296 11.5901 246.285 26.0078C245.934 31.0117 248.034 35.4774 251.137 39.1213L245.573 65.0658H261.733L258.996 45.6928Z" fill="#B28B67"/>
<path fill-rule="evenodd" clip-rule="evenodd" d="M259.804 27.6001C261.202 25.5177 262.544 23.9292 264.29 23.0068C271.394 23.1191 272.226 21.8448 272.226 17.5497C271.079 16.7282 267.03 15.3448 262.496 14.9557C260.183 14.2934 257.442 14.418 254.803 15.5227C251.544 16.4478 248.785 18.4399 247.567 22.1696C243.158 29.783 246.504 37.7083 251.014 40.4156C252.215 38.9925 253.262 37.6134 254.197 36.2932C253.446 35.5592 252.98 34.5348 252.98 33.4015C252.98 31.169 254.789 29.3592 257.02 29.3592C257.184 29.3592 257.346 29.369 257.505 29.388C257.605 32.1792 258.018 41.6225 259.104 44.9027C260.383 48.7698 267.85 49.7194 270.454 49.7194C272.703 49.7194 272.626 47.5883 272.571 46.061C272.564 45.841 272.556 45.6336 272.556 45.4469C272.556 45.0567 272.049 45.0577 271.476 45.0589C270.732 45.0603 269.877 45.062 269.877 44.2078C269.877 43.2766 271.163 42.5624 272.313 41.9233C273.031 41.5245 273.697 41.155 273.964 40.7803C274.809 39.5981 275.093 38.0036 273.819 38.0036C273.123 38.0036 272.168 38.4051 271.019 38.8882C269.285 39.6174 267.108 40.5325 264.713 40.5325C260.757 40.5325 259.816 27.7607 259.804 27.6001Z" fill="#191847"/>
<path fill-rule="evenodd" clip-rule="evenodd" d="M240.187 120.984L264.598 206.698L282.409 269.873H295.4L276.473 120.984H240.187Z" fill="#191847"/>
<path fill-rule="evenodd" clip-rule="evenodd" d="M233.658 120.984C233.094 165.162 231.168 189.257 230.575 193.271C229.983 197.285 221.018 222.819 203.683 269.873H217.14C239.21 224.733 251.529 199.199 254.099 193.271C256.669 187.344 264.601 163.248 276.547 120.984H233.658Z" fill="#2F3676"/>
<path fill-rule="evenodd" clip-rule="evenodd" d="M202.48 282L203.153 267.852L217.293 267.852C227.351 274.926 243.553 279.305 243.553 279.305V282H217.967L209.213 280.653V282H202.48Z" fill="#191847"/>
<path fill-rule="evenodd" clip-rule="evenodd" d="M280.587 282L281.26 267.852L295.4 267.852C305.457 274.926 321.66 279.305 321.66 279.305V282H296.073L287.32 280.653V282H280.587Z" fill="#191847"/>
<path fill-rule="evenodd" clip-rule="evenodd" d="M187.912 145.428C190.423 141.737 204.949 102.481 204.949 102.481L216.875 104.214C216.875 104.214 197.673 145.899 196.286 148.305C194.485 151.43 196.078 156.563 197.159 160.044C197.326 160.582 197.481 161.081 197.609 161.527C195.339 162.183 194.476 160.883 193.565 159.512C192.537 157.965 191.449 156.327 188.207 157.315C186.955 157.697 185.752 158.188 184.576 158.667C180.516 160.322 176.785 161.843 172.501 158.287C171.822 157.723 171.249 155.88 173.408 154.806C178.787 152.13 186.684 147.233 187.912 145.428ZM317.314 127.183L296.988 109.941L291.433 121.325L312.035 131.612C317.543 139.085 320.693 142.26 321.485 141.137C322.153 140.19 321.75 139.232 321.378 138.349C321.088 137.662 320.818 137.02 321.089 136.465C321.707 135.199 325.728 135.618 329.527 136.179C333.326 136.74 332.332 134.962 331.47 134.058C327.734 131.45 323.015 129.158 317.314 127.183Z" fill="#B28B67"/>
<path fill-rule="evenodd" clip-rule="evenodd" d="M254.795 53.8364L262.184 51.3912C272.209 76.4466 287.159 100.689 312.137 121.166L305.96 131.828C284.008 118.889 263.227 108.838 254.795 89.4235C251.964 82.9073 254.564 61.6278 254.795 53.8364Z" fill="#C5CFD6"/>
<path fill-rule="evenodd" clip-rule="evenodd" d="M229.413 124.352C229.413 124.352 261.166 127.721 279.399 124.352C280.905 124.074 281.143 121.551 280.444 119.839C269.568 93.1757 262.111 69.9107 262.111 51.3911C259.117 52.901 251.633 51.8437 251.633 51.8437C238.225 70.9287 232.061 92.8266 229.413 124.352Z" fill="#323337"/>
<path fill-rule="evenodd" clip-rule="evenodd" d="M247.791 50.2442C248.137 50.0109 248.32 49.8948 248.32 49.8948L248.3 50.2442H253.888C254.169 51.8965 254.58 58.0208 255.18 66.9508C257.359 99.4015 262.027 168.902 271.962 195.5H203.413C204.859 165.261 216.002 129.1 227.544 98.3944C219.027 106.873 209.08 121.087 201.04 144.747L188.2 141.449C201.285 85.0334 239.622 55.9382 247.061 50.7453C247.134 50.5774 247.206 50.4104 247.278 50.2442H247.791Z" fill="#DDE3E9"/>
<path fill-rule="evenodd" clip-rule="evenodd" d="M107.279 58.8667C111.402 61.3497 115.453 62.5494 117.354 62.0597C122.122 60.8316 122.561 43.4024 118.871 36.5313C115.182 29.6601 96.2155 26.6652 95.2595 40.2791C94.9277 45.0041 96.9133 49.2208 99.847 52.6616L94.5867 77.1597H109.867L107.279 58.8667Z" fill="#B28B67"/>
<path fill-rule="evenodd" clip-rule="evenodd" d="M110.162 28.6119C108.148 28.2819 102.726 28.0551 101.726 28.0552C101.087 28.0552 100.394 28.2011 100.016 27.6148C99.7058 27.1347 99.8193 26.3227 99.7268 25.7655C99.6194 25.1183 99.4669 24.4794 99.3126 23.8422C98.8734 22.0288 98.2094 20.3036 97.2803 18.6839C95.5369 15.645 92.983 13.2647 89.7587 11.8796C86.1981 10.3502 82.1691 10 78.3393 10.3102C74.2408 10.6421 70.5308 11.994 66.6612 13.2662C62.9737 14.4784 59.1114 14.9556 55.2546 14.3636C51.3688 13.7672 48.4327 11.6628 45.1551 9.66549C41.7997 7.6207 37.9652 6.28334 33.9985 6.59077C30.2958 6.87784 26.8832 8.40546 23.8214 10.4461C20.9567 12.3554 18.593 14.6526 17.2585 17.8856C15.8229 21.3634 15.8243 25.1808 18.185 28.2544C21.6069 32.7095 27.9594 33.8616 33.2445 33.7471C36.3014 33.681 39.3037 33.1234 42.1899 32.1092C46.0389 30.7564 49.365 28.4637 52.9659 26.6035C54.6558 25.7305 56.4025 25.0136 58.2334 24.4972C60.0101 23.9958 61.76 23.7659 63.3687 24.8383C65.0704 25.9728 66.5953 27.0872 68.5421 27.7974C70.4096 28.4788 72.3878 28.8599 74.3776 28.8445C78.2489 28.8146 82.0652 27.6094 85.8252 26.8021C88.8914 26.1438 92.1721 25.4878 95.298 26.1206C96.6024 26.3846 98.5077 26.9298 98.9788 28.2843C91.0495 29.7202 87.9352 39.5186 90.1706 46.7116C91.3771 50.5939 98.6294 55.1323 101.449 53.0913C103.236 51.7983 102.151 50.1008 101.449 48.9802C100.105 46.8342 99.6452 44.0776 102.132 42.5835C104.278 41.295 106.533 44.355 106.576 44.3516C107.166 44.3052 112.261 41.4261 115.771 37.2247C119.234 37.4298 119.76 35.1482 118.933 33.2823C118.106 31.4164 112.945 29.0681 110.162 28.6119Z" fill="#191847"/>
<path fill-rule="evenodd" clip-rule="evenodd" d="M82.2634 129.96C83.4114 145.616 157.366 191.707 157.798 193C158.085 193.862 134.778 247.507 134.778 247.507L141.243 250.017C141.243 250.017 176.992 193.204 175.156 187.15C172.527 178.483 117.775 130.127 117.775 130.127L82.2634 129.96Z" fill="#B28B67"/>
<path fill-rule="evenodd" clip-rule="evenodd" d="M136.48 239.43L147.034 243.269C169.291 218.178 178.014 197.475 176.424 186.927C174.833 176.379 119.241 129.999 119.241 129.999L81.5065 129.999C82.794 166.254 151.341 193.138 152.258 194.683C153.175 196.228 144.152 211.36 136.48 239.43Z" fill="#2F3676"/>
<path fill-rule="evenodd" clip-rule="evenodd" d="M134.88 246.746C134.01 245.963 132.65 245.971 131.917 246.884C131.126 247.869 130.239 249.085 129.936 249.916C129.347 251.533 128.756 254.831 128.756 254.831C130.634 255.514 162.5 267.103 162.5 267.103C162.5 267.103 165.398 263.236 162.69 261.859C159.982 260.482 158.21 259.521 158.21 259.521L145.339 247.091C144.934 246.7 144.286 246.72 143.906 247.136L142.26 248.937C142.26 248.937 139.191 249.206 137.551 248.609C136.749 248.318 135.721 247.503 134.88 246.746Z" fill="#E4E4E4"/>
<path fill-rule="evenodd" clip-rule="evenodd" d="M90.7667 129.96L57.8217 208.987L25.442 275.798H33.0814L116.662 129.96H90.7667Z" fill="#997659"/>
<path fill-rule="evenodd" clip-rule="evenodd" d="M27.4774 272.31C26.3921 271.872 25.1165 272.343 24.7404 273.452C24.3344 274.648 23.9167 276.094 23.9167 276.978C23.9167 278.699 24.4904 282 24.4904 282C26.4882 282 60.3996 282 60.3996 282C60.3996 282 61.7993 277.377 58.7836 277.008C55.7679 276.639 53.7731 276.342 53.7731 276.342L37.4239 269.059C36.9095 268.83 36.3074 269.071 36.0926 269.592L35.1622 271.846C35.1622 271.846 32.3705 273.148 30.625 273.148C29.7716 273.148 28.5268 272.733 27.4774 272.31Z" fill="#E4E4E4"/>
<path fill-rule="evenodd" clip-rule="evenodd" d="M28.366 261.919L45.3409 265.099C58.4659 245.819 113.394 166.763 119.417 129.96H81.6267C61.5149 156.565 40.8768 242.319 28.366 261.919Z" fill="#5C63AB"/>
<path fill-rule="evenodd" clip-rule="evenodd" d="M171.136 102.418L148.067 112.541L155.433 121.97L172.71 108.734C181.34 107.15 185.343 105.789 184.717 104.652C184.19 103.693 183.209 103.639 182.305 103.589C181.601 103.55 180.944 103.514 180.585 103.054C179.766 102.005 181.789 98.7641 183.84 95.7704C185.891 92.7767 183.968 92.8849 182.843 93.2428C179.08 95.3356 175.177 98.3938 171.136 102.418ZM67.8467 117.915L54.8003 115.329C45.9523 138.631 40.6773 151.4 38.9753 153.636C37.7273 155.277 30.0303 159.501 24.8206 161.757C22.7295 162.663 23.1785 164.429 23.7918 164.993C27.6604 168.556 31.2569 167.308 35.1719 165.948C36.3052 165.555 37.4653 165.152 38.6664 164.854C41.7753 164.082 42.7213 165.68 43.6154 167.189C44.407 168.526 45.1578 169.794 47.3328 169.288C47.2339 168.861 47.1124 168.383 46.9812 167.868C46.1333 164.534 44.8829 159.618 46.738 156.761C47.6901 155.295 54.7263 142.347 67.8467 117.915Z" fill="#B28B67"/>
<path fill-rule="evenodd" clip-rule="evenodd" d="M103.306 66.5563L108.811 65.6128C120.802 77.2353 125.696 105.158 133.687 108.854C141.242 112.349 151.953 108.967 164.684 104.401L168.582 113.105C157.015 125.609 132.372 136.173 122.384 130.142C106.414 120.5 102.727 86.0617 103.306 66.5563Z" fill="#DB2721"/>
<path fill-rule="evenodd" clip-rule="evenodd" d="M79.3067 135.685C79.3067 135.685 112.418 135.685 128.019 135.685C130.245 135.685 129.825 132.474 129.504 130.853C125.79 112.15 111.294 91.9892 111.294 65.3659L97.2427 63.1643C85.6208 81.8407 81.6017 104.835 79.3067 135.685Z" fill="#DDE3E9"/>
<path fill-rule="evenodd" clip-rule="evenodd" d="M96.4967 63.1643H96.3363C64.8203 82.5697 45.7738 112.651 39.1967 153.408L49.4072 155.406C56.1708 147.533 64.5178 134.647 74.4481 116.749C71.4014 127.531 69.1771 138.588 68.4833 149.045H112.332C120.821 127.61 101.9 63.1643 101.9 63.1643H98.8724H96.4967Z" fill="#FF4133"/>
</g>
<defs>
<clipPath id="clip0">
<rect width="1457" height="282" fill="white"/>
</clipPath>
</defs>
</svg>
