<svg width="1440" height="818" viewBox="0 0 1440 818" fill="none" xmlns="http://www.w3.org/2000/svg">
<rect x="-17" y="793" width="1457" height="25" fill="#5E7CF7"/>
<path fill-rule="evenodd" clip-rule="evenodd" d="M1327.34 602.999C1325.12 607.355 1322.28 610.568 1320.38 611.169C1315.62 612.676 1305.86 597.896 1305.33 589.992C1304.81 582.088 1319.52 569.305 1327.68 580.52C1330.51 584.412 1331.07 589.113 1330.39 593.655L1348.11 611.931L1334.96 620.15L1327.34 602.999Z" fill="#B28B67"/>
<path fill-rule="evenodd" clip-rule="evenodd" d="M1300.3 585.416C1302.13 588.343 1305.92 589.3 1308.9 587.65C1310.87 587.127 1313.23 586.175 1315.68 584.861C1315.99 585.864 1316.48 586.918 1317.17 588.022C1317.78 588.996 1318.53 589.962 1319.38 590.888C1319.51 589.962 1319.95 589.139 1320.64 588.706C1322.58 587.495 1324.93 588.246 1325.99 589.94C1327.33 592.089 1327.06 594.419 1325.33 595.675C1328.91 597.787 1332.64 598.735 1334.9 597.327C1339.18 594.652 1338.64 587.027 1334.8 580.873C1334.66 580.657 1334.53 580.445 1334.38 580.237C1336.45 580.326 1338.61 580.79 1340.78 581.258L1340.78 581.258C1345.4 582.252 1350.09 583.261 1354.16 580.715C1362.31 575.622 1355.28 557.157 1343.89 564.274C1336.14 569.113 1333.04 572.623 1330.8 576.345C1329.01 574.924 1327.06 574.006 1325.19 573.689C1324.69 573.543 1324.05 573.509 1323.3 573.578C1322.82 573.605 1322.36 573.675 1321.92 573.791C1319.48 574.301 1316.29 575.58 1313.02 577.47C1312.41 577.823 1311.82 578.184 1311.25 578.55C1309.35 575.537 1305.37 574.623 1302.35 576.511C1299.33 578.402 1298.41 582.389 1300.3 585.416Z" fill="#191847"/>
<path fill-rule="evenodd" clip-rule="evenodd" d="M1401.85 725.935C1401.85 725.935 1378.6 732.44 1361.73 732.44C1344.86 732.44 1330.38 722.423 1330.38 722.423C1330.38 722.423 1353.14 715.747 1367.87 715.747C1382.59 715.747 1401.85 725.935 1401.85 725.935Z" fill="#1F28CF"/>
<path fill-rule="evenodd" clip-rule="evenodd" d="M1348.31 738.69C1348.46 738.465 1348.58 738.221 1348.68 737.956C1350.75 732.476 1383.95 673.355 1387.25 662.546H1349.88C1347.37 670.764 1336.05 722.337 1334.46 732.627C1329.44 748.857 1319.09 801.422 1317.77 805.064C1316.38 808.895 1324.2 812.886 1326.28 808.176C1329.6 800.682 1337.49 779.947 1341.01 767.287C1344.31 755.417 1346.99 744.739 1348.31 738.69Z" fill="#997659"/>
<path fill-rule="evenodd" clip-rule="evenodd" d="M1378.88 745.908C1394.06 749.744 1449.56 756.677 1453.37 757.765C1457.29 758.884 1460.73 750.807 1455.88 749.057C1448.18 746.274 1426.94 739.841 1414.07 737.216C1403.71 735.105 1394.26 733.382 1387.92 732.374C1388.45 714.552 1390.91 671.783 1389.3 662.546H1356.23C1357.78 671.404 1370.83 736.036 1373.26 742.506C1374.03 744.815 1376.33 745.836 1378.88 745.908Z" fill="#B28B67"/>
<path fill-rule="evenodd" clip-rule="evenodd" d="M1326.15 807.144C1327.24 806.704 1328.51 807.176 1328.89 808.285C1329.31 809.506 1329.74 810.992 1329.74 811.899C1329.74 813.647 1329.16 817 1329.16 817C1327.13 817 1292.71 817 1292.71 817C1292.71 817 1291.28 812.303 1294.35 811.929C1297.41 811.554 1299.43 811.252 1299.43 811.252L1316.04 803.848C1316.56 803.618 1317.16 803.859 1317.37 804.38L1318.32 806.685C1318.32 806.685 1321.16 808.007 1322.93 808.007C1323.8 808.007 1325.08 807.579 1326.15 807.144Z" fill="#E4E4E4"/>
<path fill-rule="evenodd" clip-rule="evenodd" d="M1389.19 662.546C1389.19 662.546 1367.34 656.293 1347.83 662.546C1343.31 683.186 1332.32 691.377 1330.38 723.022C1352.36 733.939 1379.5 715.235 1402.12 725.882C1408.58 710.99 1399.53 675.125 1389.19 662.546Z" fill="#2B44FF"/>
<path fill-rule="evenodd" clip-rule="evenodd" d="M1305.33 699.403L1316.02 676.17L1325.47 683.813L1311.72 701.113C1309.96 709.844 1308.5 713.882 1307.36 713.227C1306.39 712.675 1306.36 711.678 1306.32 710.76C1306.29 710.045 1306.27 709.377 1305.81 709.005C1304.76 708.154 1301.43 710.15 1298.35 712.179C1295.28 714.207 1295.42 712.258 1295.8 711.122C1298 707.34 1301.17 703.434 1305.33 699.403ZM1415.37 684.957C1412.22 682.049 1392.78 649.401 1392.78 649.401L1380.19 654.29C1380.19 654.29 1406.34 687.504 1408.16 689.454C1410.52 691.986 1410.13 697.127 1409.87 700.614C1409.83 701.153 1409.8 701.653 1409.77 702.097C1412.04 702.22 1412.57 700.819 1413.12 699.341C1413.75 697.673 1414.41 695.907 1417.66 696.131C1418.91 696.217 1420.14 696.416 1421.34 696.61C1425.5 697.281 1429.32 697.897 1432.56 693.648C1433.07 692.975 1433.21 691.128 1430.96 690.59C1425.35 689.25 1416.91 686.379 1415.37 684.957Z" fill="#B28B67"/>
<path fill-rule="evenodd" clip-rule="evenodd" d="M1336.65 610.25L1331.08 611.358C1330.72 637.244 1322.86 663.651 1307.52 690.58L1332.32 704.635C1344.67 669.935 1348.13 637.701 1336.65 610.25Z" fill="#191847"/>
<path fill-rule="evenodd" clip-rule="evenodd" d="M1384.55 667.083L1338.1 684.916C1338.1 684.916 1339.17 639.465 1328.64 612.027L1341.85 604.56C1359.67 618.045 1371.15 638.659 1384.55 667.083Z" fill="#DDE3E9"/>
<path fill-rule="evenodd" clip-rule="evenodd" d="M1413.31 678.887C1386.23 623.518 1342.16 604.442 1342.16 604.442L1342.15 604.456C1342.15 604.453 1342.15 604.451 1342.15 604.448L1341.23 604.799C1339.61 605.486 1336.31 606.923 1336.31 606.923L1336.64 617.9C1342.89 635.803 1357.74 691.639 1357.74 691.639L1388.15 679.967C1389.04 682.446 1389.89 684.983 1390.67 687.579L1413.31 678.887Z" fill="#2F3676"/>
<path fill-rule="evenodd" clip-rule="evenodd" d="M1388.24 680.206C1384.37 669.404 1379.56 659.714 1374.48 651.223C1377.8 662.338 1381.05 675.996 1379.76 683.458L1388.24 680.206Z" fill="black" fill-opacity="0.1"/>
<path fill-rule="evenodd" clip-rule="evenodd" d="M1374.33 664.086L1356.63 662.869L1359.31 669.85L1374.33 664.086Z" fill="white" fill-opacity="0.2"/>
<path fill-rule="evenodd" clip-rule="evenodd" d="M1204.68 635.37C1200.52 637.879 1196.44 639.091 1194.52 638.596C1189.71 637.356 1189.27 619.743 1192.99 612.8C1196.71 605.856 1215.85 602.83 1216.81 616.587C1217.15 621.362 1215.14 625.623 1212.18 629.1L1217.49 653.855H1202.07L1204.68 635.37Z" fill="#B28B67"/>
<path fill-rule="evenodd" clip-rule="evenodd" d="M1191.53 615.917C1191.69 615.017 1192.06 614.018 1192.36 613.166C1192.75 612.069 1193.34 611.079 1193.98 610.146C1195.2 608.39 1196.66 606.804 1198.27 605.488C1201.22 603.084 1204.97 601.697 1208.65 602.148C1210.51 602.375 1212.32 603.085 1213.86 604.268C1215.25 605.337 1216.59 606.91 1218.39 607.023C1220.34 607.146 1222.14 605.416 1223.71 604.348C1225.48 603.144 1227.36 602.267 1229.43 601.926C1232.9 601.355 1236.15 602.527 1238.54 605.373C1241.08 608.401 1242.93 612.842 1241.26 616.855C1240.95 617.601 1240.55 618.23 1239.98 618.751C1239.46 619.229 1238.65 619.737 1238.44 620.501C1238.21 621.313 1238.89 622.36 1239.15 623.092C1239.53 624.142 1239.84 625.243 1239.73 626.384C1239.55 628.257 1238.37 630.045 1237.13 631.277C1235.86 632.529 1234.31 633.248 1232.65 633.579C1231.54 633.8 1230.4 633.922 1229.27 633.839C1228.71 633.798 1228.22 633.642 1227.68 633.519C1227.15 633.398 1226.86 633.538 1226.41 633.828C1224.33 635.173 1222.09 635.693 1219.69 635.493C1217.67 635.324 1215.33 634.833 1213.68 633.444C1211.85 631.901 1211.88 629.774 1212.31 627.501C1211.86 627.728 1210.59 627.869 1211.35 626.964C1211.65 626.606 1212.21 626.46 1212.6 626.249C1213.05 626.004 1213.5 625.687 1213.85 625.287C1215.25 623.671 1213.83 620.383 1212.07 619.841C1209.45 619.036 1208.86 622.745 1206.99 623.705C1205.91 624.257 1204.79 623.503 1203.98 622.733C1202.9 621.701 1202.17 620.334 1201.53 618.944C1201.01 617.799 1200.52 616.637 1199.99 615.498C1199.74 614.966 1198.88 613.461 1199.31 612.86C1197.43 612.485 1195.34 613.266 1193.72 614.29C1193.06 614.713 1192.55 615.18 1192.19 615.927C1192.11 616.087 1191.95 616.563 1191.74 616.582C1191.35 616.619 1191.49 616.143 1191.53 615.917Z" fill="#191847"/>
<path fill-rule="evenodd" clip-rule="evenodd" d="M1249.67 734.853C1258.51 734.853 1265.67 742.017 1265.67 750.853V798.565C1265.67 807.402 1258.51 814.565 1249.67 814.565H1187.24C1178.4 814.565 1171.24 807.402 1171.24 798.565V750.853C1171.24 742.017 1178.4 734.853 1187.24 734.853H1249.67ZM1243.68 752.853C1245.89 752.853 1247.68 754.644 1247.68 756.853V792.566C1247.68 794.775 1245.89 796.566 1243.68 796.566H1193.23C1191.02 796.566 1189.23 794.775 1189.23 792.566V756.853C1189.23 754.644 1191.02 752.853 1193.23 752.853H1243.68Z" fill="#C5CFD6"/>
<path fill-rule="evenodd" clip-rule="evenodd" d="M1107.54 811.351C1120.21 795.874 1128.78 784.4 1133.25 776.929C1140.91 764.137 1147.18 752.755 1149.16 748.407C1153.88 738.039 1138.3 733.183 1134.77 738.02C1129.43 745.339 1118.03 768.373 1100.58 807.119L1107.54 811.351Z" fill="#B28B67"/>
<path fill-rule="evenodd" clip-rule="evenodd" d="M1133.49 806.851L1157.06 747.477C1162.11 736.653 1137.76 729.538 1134.06 734.575C1125.64 746.011 1105.65 791.124 1103.15 794.531L1133.49 806.851Z" fill="#2F3676"/>
<path fill-rule="evenodd" clip-rule="evenodd" d="M1196.27 794.944C1191.68 788.242 1174.98 765.693 1165.88 756.363C1163.27 753.682 1160.72 751.109 1158.31 748.711C1151.13 741.584 1136.86 753.563 1144.01 760.055C1161.84 776.223 1187.84 798.049 1190.02 799.995C1193.06 802.722 1199.16 799.156 1196.27 794.944Z" fill="#B28B67"/>
<path fill-rule="evenodd" clip-rule="evenodd" d="M1192.83 792.807C1193.55 791.883 1194.89 791.653 1195.77 792.425C1196.73 793.269 1197.83 794.331 1198.28 795.109C1199.15 796.615 1200.32 799.794 1200.32 799.794C1198.57 800.802 1168.94 817.922 1168.94 817.922C1168.94 817.922 1165.38 814.583 1167.83 812.737C1170.28 810.892 1171.87 809.625 1171.87 809.625L1182.49 794.991C1182.82 794.535 1183.46 794.442 1183.91 794.786L1185.87 796.295C1185.87 796.295 1188.96 796.025 1190.49 795.144C1191.24 794.711 1192.12 793.711 1192.83 792.807Z" fill="#E4E4E4"/>
<path fill-rule="evenodd" clip-rule="evenodd" d="M1110.49 808.623C1111.58 808.184 1112.85 808.656 1113.23 809.765C1113.64 810.977 1114.07 812.449 1114.07 813.348C1114.07 815.086 1113.49 818.422 1113.49 818.422C1111.47 818.422 1077.26 818.422 1077.26 818.422C1077.26 818.422 1075.84 813.75 1078.89 813.378C1081.93 813.005 1083.94 812.705 1083.94 812.705L1100.45 805.342C1100.96 805.112 1101.56 805.353 1101.78 805.874L1102.72 808.162C1102.72 808.162 1105.54 809.477 1107.3 809.477C1108.16 809.477 1109.43 809.054 1110.49 808.623Z" fill="#E4E4E4"/>
<path fill-rule="evenodd" clip-rule="evenodd" d="M1165.55 750.442C1165.55 750.442 1194.93 745.651 1204.91 743.89C1223.88 740.544 1229.41 730.331 1226.14 708.048L1191.2 708.048C1184.26 710.053 1133.23 732.842 1133.23 732.842C1127.11 735.883 1128.25 744.848 1129.37 747.801C1129.44 747.982 1160.32 800.881 1160.32 800.881L1188.91 782.658L1165.49 752.589C1165.49 752.589 1164.56 750.72 1165.55 750.442Z" fill="#5C63AB"/>
<path fill-rule="evenodd" clip-rule="evenodd" d="M1258.99 736.08C1257.11 732.258 1247.7 683.072 1247.7 683.072L1233.64 683.125C1233.64 683.125 1249.71 735.228 1250.7 737.685C1251.98 740.878 1249.8 745.516 1248.32 748.661C1248.09 749.148 1247.87 749.599 1247.69 750.003C1249.75 750.924 1250.74 749.811 1251.78 748.637C1252.96 747.311 1254.2 745.908 1257.13 747.273C1258.27 747.8 1259.34 748.423 1260.39 749.032C1264 751.136 1267.32 753.069 1271.84 750.278C1272.56 749.835 1273.35 748.169 1271.45 746.868C1266.72 743.624 1259.91 737.948 1258.99 736.08ZM1140.52 716.915L1158.72 699.15L1164.76 709.616L1145.84 720.78C1141.09 728.259 1138.31 731.491 1137.48 730.475C1136.78 729.618 1137.1 728.68 1137.39 727.815C1137.62 727.141 1137.84 726.512 1137.54 726.002C1136.87 724.838 1133.07 725.505 1129.49 726.292C1125.92 727.079 1126.74 725.32 1127.5 724.402C1130.89 721.671 1135.22 719.175 1140.52 716.915Z" fill="#B28B67"/>
<path fill-rule="evenodd" clip-rule="evenodd" d="M1204.84 643.14L1199.28 642.187C1190.53 673.141 1145.57 694.24 1142.81 705.812C1141.8 710.055 1144.85 712.2 1143.28 713.493L1150.5 718.782C1151.72 717.355 1154.33 719.966 1159.78 718.139C1165.23 716.313 1204.84 679.793 1204.84 643.14Z" fill="#DB2721"/>
<path fill-rule="evenodd" clip-rule="evenodd" d="M1213.29 636.778C1215.5 636.624 1217.41 638.285 1217.56 640.489L1217.72 642.829C1228.18 650.88 1254.09 674.936 1260.84 719.719C1261.55 724.423 1260.27 726.943 1259.24 728.956C1258.54 730.333 1257.96 731.473 1258.22 732.914L1248.77 735.524C1248.77 734.46 1247.58 733.651 1246.04 732.607C1243.81 731.09 1240.85 729.076 1239.75 725.061C1238.71 721.256 1237.19 716.503 1235.37 711.215C1235.2 718.218 1233.87 724.658 1230.98 729.992C1223.77 743.299 1182.09 728.705 1177.74 715.13C1175.41 707.885 1178.71 701.804 1183.07 693.76C1188.6 683.55 1195.85 670.178 1195.5 647.256L1195.13 642.058C1194.98 639.855 1196.64 637.943 1198.84 637.789L1213.29 636.778Z" fill="#FF4133"/>
<path fill-rule="evenodd" clip-rule="evenodd" d="M241.996 582.693C246.357 585.322 250.641 586.593 252.652 586.074C257.695 584.774 258.158 566.315 254.256 559.039C250.355 551.762 230.296 548.59 229.285 563.008C228.934 568.012 231.034 572.477 234.137 576.121L228.573 602.066H244.733L241.996 582.693Z" fill="#B28B67"/>
<path fill-rule="evenodd" clip-rule="evenodd" d="M242.804 564.6C244.202 562.518 245.544 560.929 247.29 560.007C254.394 560.119 255.226 558.845 255.226 554.55C254.079 553.728 250.03 552.345 245.496 551.956C243.183 551.293 240.442 551.418 237.803 552.523C234.544 553.448 231.785 555.44 230.567 559.169C226.157 566.783 229.504 574.708 234.014 577.415C235.215 575.992 236.262 574.613 237.197 573.293C236.446 572.559 235.98 571.535 235.98 570.401C235.98 568.169 237.789 566.359 240.02 566.359C240.184 566.359 240.346 566.369 240.505 566.388C240.605 569.179 241.018 578.622 242.104 581.903C243.383 585.77 250.85 586.719 253.454 586.719C255.703 586.719 255.626 584.588 255.571 583.061C255.564 582.841 255.556 582.633 255.556 582.447C255.556 582.057 255.049 582.058 254.476 582.059C253.732 582.06 252.877 582.062 252.877 581.208C252.877 580.277 254.163 579.562 255.313 578.923C256.031 578.524 256.697 578.155 256.964 577.78C257.808 576.598 258.093 575.003 256.819 575.003C256.123 575.003 255.168 575.405 254.019 575.888C252.285 576.617 250.108 577.532 247.713 577.532C243.757 577.532 242.816 564.761 242.804 564.6Z" fill="#191847"/>
<path fill-rule="evenodd" clip-rule="evenodd" d="M223.187 657.984L247.598 743.697L265.409 806.873H278.4L259.473 657.984H223.187Z" fill="#191847"/>
<path fill-rule="evenodd" clip-rule="evenodd" d="M216.658 657.984C216.094 702.161 214.168 726.257 213.575 730.271C212.982 734.285 204.018 759.819 186.683 806.873H200.14C222.21 761.733 234.529 736.199 237.099 730.271C239.669 724.344 247.601 700.248 259.547 657.984H216.658Z" fill="#2F3676"/>
<path fill-rule="evenodd" clip-rule="evenodd" d="M185.48 819L186.153 804.852L200.293 804.852C210.35 811.926 226.553 816.305 226.553 816.305V819H200.967L192.213 817.653V819H185.48Z" fill="#191847"/>
<path fill-rule="evenodd" clip-rule="evenodd" d="M263.587 819L264.26 804.852L278.4 804.852C288.457 811.926 304.66 816.305 304.66 816.305V819H279.073L270.32 817.653V819H263.587Z" fill="#191847"/>
<path fill-rule="evenodd" clip-rule="evenodd" d="M170.912 682.428C173.423 678.737 187.949 639.481 187.949 639.481L199.875 641.214C199.875 641.214 180.673 682.899 179.286 685.305C177.485 688.43 179.078 693.563 180.159 697.044C180.326 697.582 180.481 698.081 180.609 698.527C178.339 699.183 177.476 697.883 176.565 696.513C175.537 694.965 174.449 693.327 171.207 694.315C169.955 694.697 168.752 695.188 167.576 695.667C163.516 697.322 159.785 698.843 155.501 695.287C154.822 694.723 154.249 692.88 156.408 691.806C161.787 689.13 169.684 684.233 170.912 682.428ZM300.314 664.183L279.988 646.942L274.433 658.325L295.035 668.613C300.543 676.085 303.693 679.26 304.485 678.137C305.153 677.19 304.75 676.232 304.378 675.349C304.088 674.662 303.818 674.02 304.089 673.466C304.707 672.199 308.728 672.618 312.527 673.179C316.326 673.74 315.332 671.962 314.47 671.058C310.734 668.45 306.016 666.158 300.314 664.183Z" fill="#B28B67"/>
<path fill-rule="evenodd" clip-rule="evenodd" d="M237.795 590.836L245.184 588.391C255.209 613.447 270.159 637.689 295.137 658.166L288.96 668.828C267.008 655.889 246.227 645.838 237.795 626.423C234.964 619.907 237.564 598.628 237.795 590.836Z" fill="#C5CFD6"/>
<path fill-rule="evenodd" clip-rule="evenodd" d="M212.413 661.352C212.413 661.352 244.166 664.721 262.399 661.352C263.905 661.074 264.143 658.551 263.444 656.839C252.569 630.176 245.111 606.911 245.111 588.391C242.117 589.901 234.633 588.844 234.633 588.844C221.225 607.929 215.061 629.827 212.413 661.352Z" fill="#323337"/>
<path fill-rule="evenodd" clip-rule="evenodd" d="M230.791 587.244C231.137 587.011 231.32 586.895 231.32 586.895L231.3 587.244H236.888C237.169 588.896 237.58 595.021 238.18 603.951C240.359 636.401 245.027 705.902 254.962 732.5H186.413C187.859 702.261 199.002 666.1 210.544 635.394C202.027 643.873 192.08 658.087 184.04 681.747L171.2 678.449C184.285 622.033 222.622 592.938 230.061 587.745C230.134 587.577 230.206 587.41 230.278 587.244H230.791Z" fill="#DDE3E9"/>
<path fill-rule="evenodd" clip-rule="evenodd" d="M90.2789 594.867C94.4017 597.35 98.4525 598.549 100.354 598.06C105.122 596.832 105.561 579.402 101.871 572.531C98.1819 565.66 79.2155 562.665 78.2595 576.279C77.9277 581.004 79.9133 585.221 82.847 588.662L77.5867 613.16H92.8667L90.2789 594.867Z" fill="#B28B67"/>
<path fill-rule="evenodd" clip-rule="evenodd" d="M93.1621 564.612C91.1482 564.282 85.7258 564.055 84.7258 564.055C84.0868 564.055 83.3942 564.201 83.0158 563.615C82.7058 563.135 82.8194 562.323 82.7268 561.766C82.6194 561.118 82.4669 560.48 82.3126 559.842C81.8734 558.029 81.2094 556.304 80.2803 554.684C78.5369 551.645 75.983 549.265 72.7587 547.88C69.1981 546.35 65.1691 546 61.3393 546.31C57.2408 546.642 53.5308 547.994 49.6612 549.266C45.9737 550.479 42.1114 550.956 38.2546 550.364C34.3688 549.767 31.4327 547.663 28.1551 545.666C24.7997 543.621 20.9652 542.283 16.9985 542.591C13.2958 542.878 9.88317 544.406 6.82139 546.446C3.95674 548.356 1.59304 550.653 0.25855 553.886C-1.17706 557.364 -1.17575 561.181 1.18503 564.255C4.60689 568.71 10.9594 569.862 16.2445 569.747C19.3014 569.681 22.3037 569.124 25.1899 568.109C29.0389 566.757 32.365 564.464 35.9659 562.604C37.6558 561.731 39.4025 561.014 41.2334 560.497C43.0101 559.996 44.76 559.766 46.3687 560.838C48.0704 561.973 49.5953 563.087 51.5421 563.798C53.4096 564.479 55.3878 564.86 57.3776 564.845C61.2489 564.815 65.0652 563.609 68.8252 562.802C71.8914 562.144 75.1721 561.488 78.298 562.121C79.6024 562.385 81.5077 562.93 81.9788 564.284C74.0495 565.72 70.9352 575.519 73.1706 582.712C74.3771 586.594 81.6294 591.132 84.4492 589.091C86.2356 587.798 85.1511 586.101 84.4492 584.98C83.105 582.834 82.6452 580.078 85.1323 578.584C87.2777 577.295 89.5334 580.355 89.5761 580.352C90.1658 580.305 95.2608 577.426 98.7712 573.225C102.234 573.43 102.76 571.148 101.933 569.282C101.106 567.417 95.9446 565.068 93.1621 564.612Z" fill="#191847"/>
<path fill-rule="evenodd" clip-rule="evenodd" d="M65.2634 665.96C66.4114 681.616 140.366 727.707 140.798 729C141.085 729.862 117.778 783.507 117.778 783.507L124.243 786.017C124.243 786.017 159.992 729.204 158.156 723.15C155.527 714.483 100.775 666.127 100.775 666.127L65.2634 665.96Z" fill="#B28B67"/>
<path fill-rule="evenodd" clip-rule="evenodd" d="M119.48 775.43L130.034 779.269C152.291 754.178 161.014 733.475 159.424 722.927C157.833 712.378 102.241 665.998 102.241 665.998L64.5065 665.998C65.794 702.254 134.341 729.138 135.258 730.683C136.175 732.228 127.152 747.36 119.48 775.43Z" fill="#2F3676"/>
<path fill-rule="evenodd" clip-rule="evenodd" d="M117.88 782.746C117.01 781.963 115.65 781.971 114.917 782.884C114.126 783.869 113.239 785.085 112.936 785.916C112.347 787.533 111.756 790.831 111.756 790.831C113.633 791.514 145.5 803.103 145.5 803.103C145.5 803.103 148.398 799.236 145.69 797.859C142.982 796.482 141.21 795.521 141.21 795.521L128.339 783.091C127.934 782.7 127.286 782.72 126.906 783.136L125.26 784.937C125.26 784.937 122.191 785.206 120.551 784.609C119.749 784.318 118.721 783.503 117.88 782.746Z" fill="#E4E4E4"/>
<path fill-rule="evenodd" clip-rule="evenodd" d="M73.7667 665.96L40.8218 744.987L8.44202 811.798H16.0814L99.6623 665.96H73.7667Z" fill="#997659"/>
<path fill-rule="evenodd" clip-rule="evenodd" d="M10.4774 808.309C9.3921 807.871 8.11658 808.343 7.74041 809.451C7.33446 810.647 6.91669 812.093 6.91669 812.978C6.91669 814.699 7.49048 818 7.49048 818C9.48828 818 43.3996 818 43.3996 818C43.3996 818 44.7994 813.376 41.7836 813.008C38.7679 812.639 36.7732 812.342 36.7732 812.342L20.4239 805.059C19.9095 804.83 19.3074 805.071 19.0926 805.591L18.1623 807.846C18.1623 807.846 15.3705 809.148 13.625 809.148C12.7716 809.148 11.5268 808.733 10.4774 808.309Z" fill="#E4E4E4"/>
<path fill-rule="evenodd" clip-rule="evenodd" d="M11.366 797.919L28.3409 801.099C41.4659 781.819 96.3943 702.763 102.417 665.96H64.6267C44.5149 692.565 23.8768 778.319 11.366 797.919Z" fill="#5C63AB"/>
<path fill-rule="evenodd" clip-rule="evenodd" d="M154.136 638.417L131.067 648.54L138.433 657.97L155.71 644.734C164.34 643.15 168.343 641.789 167.717 640.652C167.19 639.693 166.209 639.639 165.305 639.589C164.601 639.55 163.944 639.514 163.585 639.054C162.766 638.005 164.788 634.764 166.84 631.77C168.891 628.777 166.968 628.885 165.843 629.243C162.08 631.335 158.177 634.394 154.136 638.417ZM50.8466 653.915L37.8002 651.329C28.9522 674.63 23.6772 687.4 21.9753 689.636C20.7272 691.277 13.0303 695.501 7.82059 697.757C5.72947 698.663 6.17845 700.428 6.79177 700.993C10.6604 704.556 14.2569 703.308 18.1718 701.948C19.3052 701.555 20.4653 701.152 21.6664 700.854C24.7752 700.082 25.7213 701.68 26.6153 703.189C27.4069 704.526 28.1578 705.794 30.3328 705.288C30.2339 704.861 30.1123 704.383 29.9812 703.868C29.1333 700.534 27.8828 695.618 29.738 692.761C30.69 691.295 37.7263 678.347 50.8466 653.915Z" fill="#B28B67"/>
<path fill-rule="evenodd" clip-rule="evenodd" d="M86.3058 602.556L91.8112 601.613C103.802 613.235 108.696 641.158 116.687 644.854C124.242 648.349 134.953 644.967 147.684 640.401L151.582 649.105C140.015 661.609 115.372 672.173 105.384 666.142C89.4137 656.5 85.7269 622.062 86.3058 602.556Z" fill="#DB2721"/>
<path fill-rule="evenodd" clip-rule="evenodd" d="M62.3066 671.685C62.3066 671.685 95.4182 671.685 111.019 671.685C113.245 671.685 112.825 668.474 112.504 666.853C108.79 648.15 94.2936 627.989 94.2936 601.366L80.2427 599.164C68.6208 617.841 64.6017 640.835 62.3066 671.685Z" fill="#DDE3E9"/>
<path fill-rule="evenodd" clip-rule="evenodd" d="M79.4967 599.164H79.3363C47.8203 618.57 28.7738 648.651 22.1967 689.408L32.4072 691.406C39.1708 683.533 47.5178 670.647 57.4481 652.749C54.4014 663.531 52.1771 674.588 51.4833 685.045H95.332C103.821 663.61 84.8997 599.164 84.8997 599.164H81.8724H79.4967Z" fill="#FF4133"/>
<rect x="185.754" y="34" width="172" height="172" transform="rotate(37.1008 185.754 34)" fill="#5D7BF8"/>
<rect x="100.754" y="18" width="172" height="172" transform="rotate(37.1008 100.754 18)" fill="#6481FB"/>
<rect x="8.7536" width="172" height="172" transform="rotate(37.1008 8.7536 0)" fill="#6F8AFF"/>
<path d="M284 610.947L328.313 595.022L354.559 621.628L338.404 666.098L284 610.947Z" fill="#7690FF"/>
<g clip-path="url(#clip0)">
<path d="M369.769 577.963L378.624 569.389C381.726 566.385 386.652 566.385 389.754 569.389L414.899 593.737C418.011 596.751 419.769 600.899 419.769 605.231V791" stroke="#CBCBCB" stroke-opacity="0.75" stroke-width="8"/>
<rect x="389.769" y="790" width="59" height="7" rx="3" fill="#AFB9C5" fill-opacity="0.75"/>
<path d="M339.475 579.443C348.004 570.914 361.832 570.914 370.361 579.443C378.891 587.972 378.891 601.801 370.361 610.33L357.258 623.433L326.371 592.547L339.475 579.443Z" fill="#C5CFD6" fill-opacity="0.75"/>
<path fill-rule="evenodd" clip-rule="evenodd" d="M339.296 610.676C347.825 619.206 356.101 624.758 357.781 623.078C359.461 621.398 353.908 613.122 345.379 604.593C336.85 596.064 328.574 590.511 326.894 592.191C325.214 593.871 330.766 602.147 339.296 610.676Z" fill="#F2F2F2" fill-opacity="0.75"/>
</g>
<g opacity="0.7">
<path fill-rule="evenodd" clip-rule="evenodd" d="M1007.2 666.866C1012.37 666.552 1018.76 670.077 1019.31 676.64C1019.71 681.408 1019.58 686.163 1020.2 690.925C1020.7 694.73 1021.75 698.383 1023.18 701.85C1024.55 705.183 1027.4 708.02 1028.14 711.581C1028.62 713.85 1028.35 717.042 1027.7 719.261C1026.91 721.96 1027.33 721.747 1028.91 724.011C1032 728.448 1034.79 732.998 1036.76 738.298C1039.6 745.931 1041.46 754.853 1040.41 763.209C1040.27 764.27 1040.11 768.078 1038.86 768.344C1037.47 768.641 1038.12 766.464 1038.19 765.76C1038.67 761.272 1039.09 757.348 1038.52 752.79C1036.31 735.201 1025.51 723.613 1018.48 708.685C1018.09 707.915 1017.28 706.082 1016.71 704.873C1015.81 702.964 1014.91 699.331 1013.7 697.915C1011.42 695.248 1013.52 700.61 1013.96 701.633C1014.52 702.928 1015.14 704.304 1015.72 705.439C1018.36 710.698 1021.3 716.438 1024.03 721.86C1012.24 724.997 1003.94 708.444 1000.78 697.561C998.178 688.595 995.061 667.633 1007.2 666.866Z" fill="#69A1AC" fill-opacity="0.71"/>
<path fill-rule="evenodd" clip-rule="evenodd" d="M1076.45 650.215C1067.81 651.016 1062.27 657.676 1059.69 666.992C1058.3 672.012 1058.14 677.169 1057.36 682.328C1056.2 690.09 1053.7 695.972 1048.81 701.502C1047.29 703.215 1046.18 704.973 1045.38 706.854C1043.81 708.733 1042.44 710.858 1041.43 713.457C1040.14 716.776 1039.78 720.757 1041.26 724.066C1041.66 724.955 1042.66 726.741 1043.69 727.552C1039.83 737.176 1037.7 747.715 1037.94 758.241C1038.08 764.596 1038.35 770.952 1038.66 777.299C1038.74 779.003 1039.22 781.817 1039.93 778.959C1040.58 776.345 1039.77 772.241 1039.69 769.51C1039.32 756.207 1039.01 744.111 1043.69 731.682C1044.18 730.38 1044.71 729.087 1045.25 727.805C1045.28 727.784 1045.31 727.758 1045.34 727.732C1045.36 727.751 1045.38 727.771 1045.4 727.789C1045.43 727.717 1045.48 727.631 1045.54 727.535C1045.69 727.348 1045.83 727.11 1045.96 726.846C1046.37 726.173 1046.84 725.382 1046.85 724.949C1046.85 724.945 1046.84 724.94 1046.84 724.937C1049.75 719.403 1053.07 714.174 1056.46 709.047C1056.44 709.084 1060.14 703.186 1059.57 706.448C1059.29 708.02 1056.57 711.013 1055.47 712.678C1053.03 716.382 1050.17 721.076 1047.79 725.614C1047.47 725.829 1047.02 726.884 1046.69 727.669C1046.51 728.067 1046.35 728.469 1046.18 728.818C1054.6 732.07 1061.16 725.519 1065.62 717.9C1065.63 717.891 1065.63 717.882 1065.64 717.873C1067 715.768 1068.39 713.677 1070.13 712.013C1073.03 709.236 1076.14 708.746 1079.57 707.379C1088.9 703.652 1092.87 689.516 1094.13 679.027C1095.55 667.194 1088.59 649.049 1076.45 650.215Z" fill="#89C5CC" fill-opacity="0.79"/>
<path fill-rule="evenodd" clip-rule="evenodd" d="M1059.39 617.077C1050.52 627.859 1046.24 642.813 1042.85 656.872C1039.06 672.573 1036.56 688.518 1036.46 704.843C1036.4 715.568 1036.15 726.361 1036.69 737.074C1036.88 740.879 1037.2 744.69 1037.72 748.454C1037.76 748.764 1038.92 757.168 1040.02 755.209C1040.65 754.096 1038.84 746.491 1038.7 745.225C1037.93 738.091 1037.75 730.905 1037.79 723.719C1037.85 711.889 1037.55 700.119 1038.58 688.332C1038.73 686.572 1038.85 684.724 1039.21 683.002C1039.59 681.172 1039.11 681.971 1040.34 681.246C1041.54 680.542 1043.03 680.643 1044.28 679.759C1049.22 676.253 1051.76 667.248 1053.73 661.34C1055.98 654.583 1057.35 647.378 1058.44 640.268C1059.24 635.044 1059.82 629.851 1060.14 624.56C1060.25 622.892 1060.25 621.148 1060.53 619.509C1060.61 619.066 1060.99 618.284 1060.97 617.892C1060.94 617.063 1060.52 616.576 1060.48 615.879C1060.11 616.269 1059.75 616.669 1059.39 617.077Z" fill="#89C5CC" fill-opacity="0.79"/>
<path fill-rule="evenodd" clip-rule="evenodd" d="M1011.05 760.724C1011.05 778.554 1023.42 793.009 1038.68 793.009C1053.94 793.009 1066.31 778.554 1066.31 760.724" fill="#89C5CC" fill-opacity="0.79"/>
<path fill-rule="evenodd" clip-rule="evenodd" d="M1057.61 732.458C1064.45 731.869 1072.09 738.315 1075.38 745.023C1078.04 750.432 1077.59 757.534 1075.95 763.28C1074.85 767.127 1072.45 772.611 1068.45 772.665C1063.44 772.732 1063.2 765.499 1063.1 761.271C1062.98 755.65 1062.37 750.753 1058.58 746.921C1058.11 746.449 1057.62 746.006 1057.13 745.563C1056.69 745.17 1056.26 744.777 1055.84 744.363C1055.77 744.297 1055.7 744.231 1055.63 744.165C1054.29 742.848 1052.89 741.466 1052.71 739.296C1052.47 736.151 1053.98 735.585 1056.3 736.169C1056.38 736.188 1056.58 736.278 1056.86 736.401C1058.04 736.925 1060.57 738.045 1060.09 736.707C1059.91 736.202 1059.25 735.803 1058.42 735.503C1056.28 735.231 1053.72 734.914 1052.98 735.103C1045.03 737.14 1041.94 750.002 1041.12 758.174C1041.03 759.056 1040.96 759.941 1040.9 760.827H1039.44C1039.54 758.687 1039.67 756.55 1039.98 754.434C1041.15 746.339 1044.81 734.451 1052.84 733.137C1053.14 733.088 1054.23 733.08 1055.55 733.17C1056.17 732.762 1056.87 732.515 1057.61 732.458Z" fill="#69A1AC" fill-opacity="0.71"/>
</g>
<circle cx="1182.5" cy="105.5" r="32.5" fill="#708BFF"/>
<circle cx="1366" cy="46" r="12" fill="#7C91E9"/>
<path d="M1250.94 266.999L1240.11 307.134L1210.77 277.69L1250.94 266.999Z" fill="#637FF7"/>
<defs>
<clipPath id="clip0">
<rect width="139" height="245" fill="white" transform="translate(309.769 552)"/>
</clipPath>
</defs>
</svg>
