<svg width="626" height="104" viewBox="0 0 626 104" fill="none" xmlns="http://www.w3.org/2000/svg">
<path d="M15.329 0.218994C11.2081 0.836136 7.90339 2.50839 5.09639 5.41493C2.15004 8.46082 0.577326 11.9049 0.119447 16.3642L0 17.7179H8.28164H16.5434L16.623 48.9134C16.6628 77.1825 16.7026 80.308 17.0212 81.9206C18.4545 89.6249 21.6398 94.5023 26.995 97.1898C32.9872 100.196 42.9013 101.709 55.3237 101.49C61.2762 101.37 63.6054 101.112 67.8656 100.017C74.276 98.4042 78.9145 95.7963 83.1548 91.4763C88.9878 85.5438 91.3369 79.671 92.6907 67.6865C93.2083 63.2271 93.2481 60.3206 93.0291 48.3759C92.7106 30.6779 92.1531 25.9 89.8239 20.1666C88.1716 16.1452 85.7827 12.6813 82.2988 9.33676C77.1626 4.35982 71.2898 1.71208 62.4507 0.378258C60.5396 0.0796432 17.1605 -0.0597153 15.329 0.218994ZM59.803 18.2555C63.4859 19.2907 65.3573 20.3458 67.8457 22.7944C69.4782 24.3871 69.7768 24.8051 70.6726 26.6765C71.2301 27.8311 71.8671 29.5233 72.0861 30.4589C72.9421 34.0622 73.3005 39.8156 73.3005 50.3667C73.3005 69.7569 72.325 74.5746 67.3879 79.233C63.048 83.334 57.0557 84.628 47.2213 83.5928C44.8124 83.334 42.4235 82.7766 40.9901 82.1395C39.5767 81.5224 37.9841 80.0293 37.3271 78.7751C36.2521 76.6251 36.272 77.4612 36.272 46.425V17.698L47.281 17.7578C57.8321 17.8374 58.3298 17.8573 59.803 18.2555Z" fill="white"/>
<path d="M110.528 38.2031C110.528 62.1124 110.608 77.3418 110.727 78.9544C111.304 86.38 113.255 91.556 116.759 95C120.263 98.464 126.255 100.554 134.816 101.331C136.209 101.45 145.048 101.53 157.272 101.53H177.418V92.7704V84.0109H159.86C149.408 84.0109 141.385 83.9313 140.091 83.8119C137.842 83.5929 135.433 83.0554 134.378 82.4979C133.382 81.9803 132.028 80.6067 131.511 79.5914C130.436 77.4613 130.356 76.6451 130.336 67.587V59.2257L146.123 59.166C160.357 59.1262 161.89 59.0864 161.89 58.8077C161.89 58.3299 163.065 43.8569 163.204 42.6625L163.304 41.6073L146.82 41.5675L130.336 41.5078L130.277 29.603L130.237 17.718H153.828H177.418V8.85903V6.86646e-05H143.973H110.528V38.2031Z" fill="white"/>
<path d="M185.58 0.199127C185.58 0.318573 186.775 4.06123 188.248 8.52058C189.721 12.9799 196.808 34.5401 204.015 56.4386C211.202 78.3372 217.293 96.6723 217.532 97.17C218.747 99.5589 220.857 101.351 223.246 102.027C225.814 102.744 229.258 102.406 231.289 101.211C232.324 100.614 233.916 98.9417 234.633 97.7075C234.932 97.17 242.178 75.7691 251.296 48.4357C260.155 21.8588 267.401 0.0796738 267.401 0.0597687C267.401 0.0199509 262.763 4.57764e-05 257.109 4.57764e-05H246.797L243.771 9.81458C236.743 32.6289 226.571 65.6161 226.471 65.8948C226.371 66.1536 222.768 54.5872 208.196 7.36593L205.966 0.0995865L195.773 0.0398636C188.686 0.0199509 185.58 0.0597687 185.58 0.199127Z" fill="white"/>
<path d="M362.262 6.21115C363.397 9.63529 370.524 31.295 378.089 54.3482C385.693 77.4611 392.144 96.7717 392.482 97.4087C393.696 99.6981 395.468 101.211 397.857 101.968C399.31 102.425 402.396 102.525 403.77 102.147C406.059 101.51 407.97 100.037 409.264 97.8865C409.802 97.0106 413.823 85.2053 426.086 48.4157C434.945 21.8388 442.192 0.0795517 442.192 0.0596466C442.192 0.0198288 437.553 -7.62939e-05 431.88 -7.62939e-05H421.567L419.039 8.20193C407.214 46.6439 401.241 65.8947 401.162 65.9743C401.122 66.0142 397.877 55.6621 393.955 42.941C390.033 30.2199 385.455 15.3687 383.782 9.95382L380.736 0.0994644L370.464 0.0397415L360.211 -7.62939e-05L362.262 6.21115Z" fill="white"/>
<path d="M454.535 38.5016C454.535 63.1275 454.614 77.8991 454.734 79.5116C455.112 83.971 456.167 88.0521 457.74 90.9785C460.825 96.6921 466.021 99.5588 476.035 101.052C478.066 101.37 480.733 101.41 499.885 101.47L521.425 101.55V92.6906V83.8316L501.776 83.7719L482.107 83.7122L480.534 83.2543C477.21 82.3186 475.677 80.8056 474.721 77.5209C474.422 76.5056 474.363 75.1518 474.303 67.7262L474.204 59.1261H490.05H505.897V58.6682C505.897 58.1108 507.051 43.598 507.191 42.4433L507.29 41.6072H490.767H474.243V29.6625V17.7179H497.834H521.425V8.85889V-7.62939e-05H487.98H454.535V38.5016Z" fill="white"/>
<path d="M559.488 0.219055C555.407 0.557487 551.346 1.69223 548.758 3.20522C548.121 3.58347 546.887 4.59877 546.011 5.47471C544.657 6.80853 544.239 7.40577 543.363 9.15765C542.189 11.5466 541.452 14.1147 541.153 17.0411C541.034 18.2953 540.915 34.0623 540.855 60.2609L540.755 101.53H550.689H560.643V82.7169V63.9041H567.79H574.937L577.425 68.6222C578.779 71.2301 580.571 74.6145 581.367 76.1474C582.163 77.6803 585.488 83.991 588.753 90.1823L594.666 101.43L602.191 101.49C610.492 101.55 611.468 101.45 614.434 100.315C618.674 98.6631 622.517 94.8607 624.268 90.5606C624.886 89.0476 625.543 86.0813 625.543 84.7475V83.8119H616.703H607.864L601.454 72.2454C597.93 65.8948 595.064 60.6591 595.104 60.6193C595.143 60.5994 595.76 60.3207 596.477 60.022C602.808 57.3743 608.661 51.2427 611.428 44.3347C613.1 40.2138 613.837 34.5799 613.419 29.4636C612.682 20.8833 609.875 14.5726 604.361 9.05811C598.966 3.6631 592.794 0.935738 584.433 0.219055C581.626 -0.0397491 562.475 -0.0198364 559.488 0.219055ZM583.338 18.1162C589.151 19.5097 593.033 24.0686 593.65 30.2599C594.447 37.9244 590.545 44.4741 583.836 46.7436L582.243 47.2811L571.453 47.3408L560.643 47.4005V36.2721C560.643 29.7025 560.723 24.7056 560.842 24.0885C561.3 21.6398 562.933 19.3504 564.784 18.574C566.596 17.7976 567.173 17.7578 574.479 17.7379C581.029 17.718 581.785 17.7578 583.338 18.1162Z" fill="white"/>
<path d="M308.411 0.796318C298.756 1.71207 290.574 4.18064 284.94 7.9034C282.611 9.43629 279.525 12.5817 278.271 14.692C275.822 18.793 274.608 23.9093 274.15 32.0316C273.871 37.2276 274.011 72.2454 274.349 75.351C275.126 82.677 276.4 87.0169 278.769 90.5804C283.168 97.15 292.246 101.47 305.425 103.262C309.228 103.779 320.675 103.779 324.338 103.262C338.811 101.231 348.287 96.294 352.189 88.7887C353.264 86.7581 353.841 85.1058 354.458 82.5178C355.872 76.5255 356.051 72.7829 355.931 49.6699C355.852 29.2645 355.812 28.6871 354.777 23.5509C353.124 15.2494 349.043 9.9539 341.399 6.07188C336.461 3.58341 331.086 2.07042 323.641 1.07503C321.013 0.71669 311.159 0.537514 308.411 0.796318ZM341.359 37.6257V49.6699L337.636 49.7297L333.893 49.7695V41.5077V33.246H324.935H315.976V29.364V25.482L328.678 25.5218L341.359 25.5815V37.6257ZM323.243 47.8981C324.537 48.4954 325.333 50.1676 325.054 51.6607C324.895 52.5168 323.88 53.7112 323.004 54.0696C321.57 54.6668 319.679 54.1492 318.763 52.9149C317.848 51.6806 318.027 49.5505 319.142 48.4954C320.296 47.4004 321.75 47.1815 323.243 47.8981ZM309.228 48.4755C310.482 49.1324 311.278 51.0038 310.92 52.4371C310.741 53.1538 309.646 54.3483 308.869 54.6668C305.923 55.9011 302.996 52.7955 304.43 49.9686C305.306 48.2366 307.456 47.5796 309.228 48.4755ZM296.228 62.8489L296.268 71.0708H305.107H313.946L314.085 74.7338C314.165 76.7445 314.165 78.4964 314.105 78.6159C314.005 78.7751 310.263 78.8348 301.324 78.8348H288.703V66.8105V54.7663L289.559 54.6867C290.017 54.6469 291.689 54.627 293.281 54.627L296.168 54.6469L296.228 62.8489Z" fill="white"/>
</svg>
